/* XPM */
static char *klinpopup32[]={
"32 32 245 2",
"Qt c None",
"bf c #000002",
"bV c #00001c",
"bz c #000024",
".# c #000040",
"aZ c #00010c",
"#6 c #000336",
"bT c #00033b",
"#M c #000453",
"#z c #000544",
"bH c #000763",
"be c #000b6d",
"bO c #000d82",
"#p c #001275",
"bN c #00138a",
"bM c #00169e",
"#8 c #0095ff",
"#Z c #009cfd",
"#P c #00a3fc",
"#B c #00abfa",
"#g c #00b2fa",
"#f c #00b4f7",
".5 c #00bafa",
".4 c #00bbf6",
"#e c #00c3f5",
"bA c #01085a",
"bY c #021aa9",
"a7 c #030414",
"bR c #032499",
"br c #040a39",
".v c #041230",
"#U c #06197b",
".Y c #071e64",
"#Y c #07cbf6",
"bW c #083d82",
"#c c #092179",
"bU c #0c4c79",
"#H c #0f1c84",
"bI c #0f3e90",
"aU c #101430",
"bX c #105578",
".f c #112348",
".M c #121014",
"bQ c #126960",
"bl c #14257b",
"#N c #161319",
".L c #193384",
".3 c #1acbf7",
"bs c #1c687a",
"bL c #1c884a",
"bS c #1d943d",
".u c #1f3674",
".6 c #1fa8d1",
"ao c #222d50",
".e c #253b68",
"#4 c #258ad9",
"bC c #25b726",
"#J c #2796d5",
"#h c #27a7d4",
"#C c #28a2d4",
"bP c #28c31b",
".d c #2a4a74",
".h c #2a6d91",
"bK c #2ac422",
"#2 c #2ac8ff",
".a c #2b303e",
"bJ c #2bbd2a",
"a0 c #2c4086",
"bv c #2dc32d",
"#V c #2f3950",
".t c #2f4d8f",
"bn c #2fc534",
"a8 c #305299",
"#y c #31257f",
"#W c #31c0f6",
"bB c #32c52c",
"#1 c #332e83",
"bt c #33b43d",
"af c #33c396",
"bu c #33c432",
".b c #344565",
"#r c #35d9fc",
"bG c #363d80",
"by c #374678",
".c c #375177",
"bi c #37c936",
"bD c #39913b",
"bm c #39b254",
"ae c #39cb98",
".0 c #3adafc",
"bg c #3b9d7a",
"ba c #3ccc3a",
".w c #3d485c",
"aX c #3dcf40",
"ac c #3ed69c",
"ad c #40d79d",
"#O c #41ade4",
"b# c #41ce3e",
"ab c #41db9e",
".g c #42526c",
"b. c #43d13d",
"a3 c #44d141",
"#7 c #44d4fe",
".X c #454f89",
"a9 c #45b471",
".y c #45c4f6",
"bh c #45d63a",
".j c #46b1ed",
".k c #46bef4",
".i c #479cd3",
"aV c #498aa7",
"aW c #49d545",
"aS c #49d648",
"a1 c #4ab084",
"a6 c #4d4d7c",
"aJ c #4dd949",
"#I c #4f7ba2",
"aF c #5097a3",
"#5 c #522d71",
".l c #52ccff",
"aR c #52dc4c",
"ag c #53bc7e",
".2 c #53daf8",
"a. c #54cfc2",
"bo c #55c52a",
"#q c #56708f",
".Z c #5794bc",
"a2 c #58e346",
".O c #59e2fe",
"#9 c #5a2d6a",
"an c #5a4570",
".m c #5ad6ff",
"aI c #5ae354",
"bb c #5bc932",
"aQ c #5be254",
"bk c #5d5674",
".K c #605283",
".x c #60a5d7",
"a4 c #60cf37",
".N c #618bb1",
"aO c #61cf81",
"av c #62e94d",
"aH c #62e95b",
"aa c #63e5af",
"ap c #64c292",
"#b c #653f73",
"aw c #65d43b",
"au c #67eb54",
"#o c #693364",
"#A c #69e7fb",
"bF c #6a6075",
"aK c #6bd941",
".s c #6d6488",
"at c #6ef156",
"as c #70f159",
".n c #73c9f1",
"ax c #73e23c",
"aT c #746567",
"#3 c #7be4fa",
"aP c #7cf070",
"ar c #8af577",
".z c #8beaff",
"aG c #8bf084",
"bx c #957a59",
".r c #967879",
".R c #96e6fc",
".1 c #98f3fe",
".S c #9bd9ea",
"#s c #a8f5fd",
"bq c #a9864b",
".W c #ac6358",
".J c #ad7369",
"bE c #b49041",
".A c #b5f5fe",
"#G c #b64f42",
".q c #b68f7d",
"#T c #ba4838",
"aq c #bafeac",
"#d c #beeffd",
".Q c #c4f8fe",
"a# c #c7fbdd",
"aN c #d19d35",
".o c #d3ac89",
"#X c #d3f6fd",
"bw c #d9a333",
"#0 c #dd5b2c",
"#a c #dd7e58",
"#F c #de4b1c",
"#R c #de4d25",
".B c #defafe",
"#Q c #df5126",
"#j c #df652c",
"#L c #e04f25",
"#E c #e05425",
"#t c #e25b25",
"#v c #e36742",
"#l c #e4561c",
".7 c #e47629",
".P c #e4fbfe",
"#k c #e5611e",
"#K c #e56325",
"#m c #e56728",
"#u c #e64c1d",
"#i c #e76b26",
".p c #e79b77",
"bj c #e8ae27",
"#S c #e95a2e",
"#D c #e96d24",
"#. c #ea7834",
".9 c #eb7223",
"#x c #ec754c",
"## c #ec8a54",
"ah c #edb127",
".C c #edfcfe",
".8 c #ee7319",
"#n c #ee8b65",
"aj c #f19b24",
"ai c #f1a623",
".D c #f1feff",
"ak c #f29324",
"al c #f38e24",
".V c #f3a886",
".I c #f4c197",
"am c #f7911b",
"bc c #f7cc26",
"a5 c #f7d526",
"aY c #f7dc26",
"aL c #f7e026",
"#w c #f9ccb3",
"aM c #fbb723",
"ay c #fcea26",
"aB c #fdd126",
".T c #fdd9c7",
"aA c #fdda26",
"aE c #feba25",
"bd c #febc1d",
"aD c #fec325",
"aC c #feca26",
"az c #fee226",
".U c #fee9d8",
".E c #fefffe",
"bp c #ffc11e",
".H c #ffe1c4",
".G c #fff4e6",
".F c #fffcf3",
"QtQtQtQtQtQtQtQtQtQtQtQtQtQtQtQtQtQtQtQtQtQtQtQtQtQtQtQtQtQtQtQt",
"QtQtQtQtQtQtQtQtQtQt.#.a.b.c.d.d.b.e.e.f.#QtQtQtQtQtQtQtQtQtQtQt",
"QtQtQtQtQtQtQtQt.g.h.i.j.k.l.m.n.o.p.q.r.s.t.u.vQtQtQtQtQtQtQtQt",
"QtQtQtQtQtQt.w.x.y.m.z.A.B.C.D.E.D.F.G.H.I.p.J.K.L.vQtQtQtQtQtQt",
"QtQtQtQt.M.N.y.O.A.D.E.E.P.Q.R.S.I.I.I.T.G.G.U.V.W.X.YQtQtQtQtQt",
"QtQtQt.#.Z.0.1.E.E.B.R.2.3.4.5.6.7.8.8.9#.##.V.T.T#a#b#c.#QtQtQt",
"QtQt.M.Z.0#d.E.D.z.3#e.4#f#f#g#h.7.9.9#i#j#k#l#m.p.T#n#o#pQtQtQt",
"QtQt#q#r#s.E.C.2#e#e#e.4.5#f#g#h.7.8.7#i#k#j#k#t#u#v#w#x#y#zQtQt",
"Qt.a.k#A.E.B#r#e#e#e.4.4#f#f#B#C.7#D#i#i#m#t#t#t#E#F#v.V#G#H.#Qt",
"Qt#I#r.B.C#r#e#e#e.4.4#f#B#B#B#J#i#D#K#m#t#t#t#E#L#L#L#j#x#o#MQt",
"#N#O#A.E#A#e#e#e.4#f#f#f#B#B#P#J#m#i#m#t#t#t#Q#Q#R#R#Q#R#S#T#U.#",
"#V#W#s#X#Y#e#e.4.4#f#B#B#B#P#Z#J#j#m#t#t#0#Q#R#R#R#R#R#Q#R#R#1.#",
".c#2#X#3#e#e.5.5#f#B#B#B#P#Z#Z#4#j#l#t#t#Q#R#L#R#R#R#L#Q#R#u#5#6",
".c#2.Q#7.5.5.5#g#B#B#P#P#Z#Z#8#4#0#E#Q#L#R#R#R#R#R#R#R#R#L#u#9#6",
".ba.a#aaabababacadaeaeaeaeafafagahaiaiaiaiajajajakakalalakaman#6",
"aoapaqarasasasatatauauavavavawaxayayazazaAaAaBaCaDaDaEaDaDaC#y.#",
"#NaFaGaGaHaHaHaHaIaIaIaIaIaIaJaKaLaAaAaBaBaCaCaCaEaEaEaMaEaN#U.#",
"Qt.taOaPaQaHaQaQaIaIaRaIaSaJaSawaLaAaBaBaCaCaDaEaEaEaMaEaEaT#MQt",
"QtaUaVaRaIaIaRaIaIaRaJaJaSaWaXawaYaBaBaCaCaDaEaEaEaEaEaEaN#HaZQt",
"QtQta0a1a2aRaRaRaJaJaSaWaWa3aXa4a5aBaCaCaDaDaEaMaEaEaEaEa6#zQtQt",
"QtQta7a8a9aJaJaRaSaSaWb.b.b#babbbcaCaCaDaDaEaEaEaEaEbdaTbebfQtQt",
"QtQtQt.#.tbgbhbha3a3b#b#bababibbbcaCaDaDaEaEaEaEaDbjbkbe.#QtQtQt",
"QtQtQtQtaZbl.hbmbhb.b#bababibnboaDaDaDaEaEaEbpbdbq#1#MbfQtQtQtQt",
"QtQtQtQtQtQtbr.LbsbtbibububvbvboaCbpaDbdaMbwbxby#pbzQtQtQtQtQtQt",
"QtQtQtQtQtQtQtQtbAbsbBbubvbvbCbDbEbqbxbFbGblbHbz.#QtQtQtQtQtQtQt",
"QtQtQtQtQtQtQtQta7bIbJbvbJbKbLbMbNbNbObHbz.#QtQtQtQtQtQtQtQtQtQt",
"QtQtQtQtQtQtQtQtQt#UbLbPbJbKbQbAbf.#.#QtQtQtQtQtQtQtQtQtQtQtQtQt",
"QtQtQtQtQtQtQtQtQt#6bRbSbPbKbS#cQtQtQtQtQtQtQtQtQtQtQtQtQtQtQtQt",
"QtQtQtQtQtQtQtQtQtQtbTbRbQbCbPbU#6QtQtQtQtQtQtQtQtQtQtQtQtQtQtQt",
"QtQtQtQtQtQtQtQtQtQtQtbV.YbWbQbXbY.#QtQtQtQtQtQtQtQtQtQtQtQtQtQt",
"QtQtQtQtQtQtQtQtQtQtQtQtQtbVbTbT#6bfQtQtQtQtQtQtQtQtQtQtQtQtQtQt",
"QtQtQtQtQtQtQtQtQtQtQtQtQtQtQtQtQtQtQtQtQtQtQtQtQtQtQtQtQtQtQtQt"};
