/* XPM */
static char *klinpopup16[]={
"16 16 161 2",
"Qt c None",
"aE c #000000",
".h c #000040",
".5 c #000080",
"## c #00a6ff",
"#. c #00adfa",
".W c #00b0fd",
".9 c #00b6f9",
".J c #00b6fc",
".V c #00b7f7",
".8 c #00bdf8",
".I c #00bef6",
".U c #00c6f5",
"ay c #020d3d",
"#j c #02c2f0",
"aD c #03193f",
"#n c #03a2f8",
"#m c #04a9f3",
"#l c #04b0f2",
"#k c #04b9f2",
".g c #060f28",
".D c #062c5d",
"#X c #070e35",
"aB c #093654",
".H c #0dc8f6",
"ah c #0e1b41",
"a. c #142540",
"ax c #151b4d",
"aq c #175261",
".K c #18a7e0",
"#h c #1a1344",
"#a c #1a97e3",
".X c #1ba0e0",
".7 c #1dcef9",
"#o c #1e93dc",
"az c #219b4b",
".# c #223e54",
"aC c #22ab3c",
".w c #26b3e1",
".v c #2bcbfd",
"#I c #2c2846",
".a c #2c6384",
"aA c #2ccc20",
"ai c #2d8269",
"as c #2dc42d",
".R c #302156",
"al c #33c836",
"#t c #341e47",
".q c #342e58",
"ar c #34c934",
".f c #35334b",
"at c #37a338",
"ad c #3ccf3e",
"aj c #3dc645",
"ak c #3dcd37",
"a# c #43ad6d",
"ac c #44d241",
"#3 c #45d546",
".E c #479dbd",
"#Y c #49a07a",
"ab c #49d842",
"#z c #49d86c",
".C c #4a3765",
".i c #4c97b9",
"am c #4dc92d",
".b c #4e95c3",
"#2 c #4ed94a",
"aa c #4ee145",
"#O c #51de49",
"ae c #52cb36",
"#1 c #52dc4d",
"#y c #53dd6f",
".r c #54afce",
"#0 c #56df4f",
"#x c #57e272",
"#4 c #59d23d",
"#v c #59e874",
"#N c #5ae24e",
"#w c #5ae675",
"#A c #5cd35d",
"#Z c #5cec50",
"#9 c #5f5255",
"#M c #5fe552",
".c c #609bc5",
"aw c #615250",
"#P c #62db3f",
"#L c #62e854",
"ap c #695857",
"#K c #69ed57",
".e c #756f86",
"#J c #7deb82",
"#i c #7ee8fc",
".u c #7fe2fa",
".j c #8adffd",
"ag c #8d7152",
".G c #92eafb",
"#u c #95f8a8",
".d c #9697ac",
".S c #99eeff",
"av c #9b7a4d",
".4 c #9c4e5c",
".T c #a2effd",
".p c #a98a93",
".6 c #adf9ff",
"au c #ae8a44",
".k c #c9fcff",
".s c #c9ffff",
".m c #cff4fb",
"#W c #d2a03e",
".t c #d2faff",
".F c #d3ffff",
"#g c #d54e36",
"#p c #da662f",
"#b c #db662f",
".l c #dbfdff",
".2 c #de4a1f",
".Y c #de6f2f",
"ao c #dea939",
"#e c #df4d26",
"#d c #df4f26",
"#s c #df542e",
".L c #df752c",
".1 c #e05625",
".Q c #e18776",
"#f c #e24d22",
"#r c #e25424",
".O c #e2581f",
".x c #e38237",
".B c #e3a394",
".0 c #e45e26",
".N c #e45f1d",
"#q c #e55b23",
"#c c #e75b23",
".Z c #e96423",
".M c #eb6920",
".3 c #ef6436",
".P c #ef774b",
".y c #f07d32",
".o c #f0c6b0",
".z c #f19561",
"#B c #f4cc26",
"#5 c #f4d427",
"#Q c #f5e027",
"#H c #f6a831",
"#D c #f8c025",
"#E c #f9b925",
"#F c #fab025",
"#G c #fbab23",
"#C c #fbc824",
".A c #fdb992",
"#T c #fec526",
"#S c #fed026",
"#7 c #ffba25",
"#U c #ffbd26",
"af c #ffbe22",
"#V c #ffc024",
"#8 c #ffc225",
"an c #ffc621",
"#6 c #ffcd26",
"#R c #ffd826",
".n c #ffdfc6",
"QtQtQtQt.#.a.b.c.d.e.f.gQtQtQtQt",
"QtQt.h.i.j.k.l.m.n.n.o.p.q.hQtQt",
"Qt.h.r.s.t.u.v.w.x.y.z.A.B.C.hQt",
".D.E.F.G.H.I.J.K.L.M.N.O.P.Q.RQt",
".h.S.T.U.I.V.W.X.Y.Z.0.1.2.3.4.5",
".D.6.7.8.9#.###a#b#c.1#d#e#f#g#h",
".D#i#j#k#l#m#n#o#p#q.1.1#d#r#s#t",
".D#u#v#w#x#y#z#A#B#C#D#E#F#G#H#I",
".h#J#K#L#M#N#O#P#Q#R#S#T#U#V#W#X",
".D#Y#Z#0#1#2#3#4#5#6#T#U#7#8#9.5",
"Qta.a#aaabacadae#B#T#Uaf#Uag.hQt",
"QtQtahaiajakalam#6an#Vaoap.hQtQt",
"QtQtQt.haqarasatauavawax.hQtQtQt",
"QtQtQtQtayazaAaB.h.h.hQtQtQtQtQt",
"QtQtQtQt.h.DaC.hQtQtQtQtQtQtQtQt",
"QtQtQtQtQt.haD.haEQtQtQtQtQtQtQt"};
